<?xml version="1.0" encoding="utf-8" standalone="no"?>
<!DOCTYPE svg PUBLIC "-//W3C//DTD SVG 1.1//EN"
  "http://www.w3.org/Graphics/SVG/1.1/DTD/svg11.dtd">
<svg xmlns:xlink="http://www.w3.org/1999/xlink" width="559.2025pt" height="250.570604pt" viewBox="0 0 559.2025 250.570604" xmlns="http://www.w3.org/2000/svg" version="1.1">
 <metadata>
  <rdf:RDF xmlns:dc="http://purl.org/dc/elements/1.1/" xmlns:cc="http://creativecommons.org/ns#" xmlns:rdf="http://www.w3.org/1999/02/22-rdf-syntax-ns#">
   <cc:Work>
    <dc:type rdf:resource="http://purl.org/dc/dcmitype/StillImage"/>
    <dc:date>2026-07-31T07:14:11.242198</dc:date>
    <dc:format>image/svg+xml</dc:format>
    <dc:creator>
     <cc:Agent>
      <dc:title>Matplotlib v3.11.1, https://matplotlib.org/</dc:title>
     </cc:Agent>
    </dc:creator>
   </cc:Work>
  </rdf:RDF>
 </metadata>
 <defs>
  <style type="text/css">*{stroke-linejoin: round; stroke-linecap: butt}</style>
 </defs>
 <g id="figure_1">
  <g id="patch_1">
   <path d="M 0 250.570604 
L 559.2025 250.570604 
L 559.2025 0 
L 0 0 
z
" style="fill: #ffffff"/>
  </g>
  <g id="axes_1">
   <g id="patch_2">
    <path d="M 65.088 183.460041 
L 196.961016 183.460041 
L 196.961016 33.772041 
L 65.088 33.772041 
z
" style="fill: #ffffff"/>
   </g>
   <g id="matplotlib.axis_1">
    <g id="xtick_1">
     <g id="line2d_1">
      <defs>
       <path id="m8a1931cfab" d="M 0 0 
L 0 3.5 
" style="stroke: #1a1d21; stroke-width: 0.8"/>
      </defs>
      <g>
       <use xlink:href="#m8a1931cfab" x="104.161486" y="183.460041" style="fill: #1a1d21; stroke: #1a1d21; stroke-width: 0.8"/>
      </g>
     </g>
     <g id="text_1">
      <text style="font-size: 8.5px; font-family: 'DejaVu Sans'; fill: #1a1d21" transform="translate(81.763986 197.769543)">This paper</text>
      <text style="font-size: 8.5px; font-family: 'DejaVu Sans'; fill: #1a1d21" transform="translate(81.601955 207.971867)">(cars only)</text>
     </g>
    </g>
    <g id="xtick_2">
     <g id="line2d_2">
      <g>
       <use xlink:href="#m8a1931cfab" x="153.003344" y="183.460041" style="fill: #1a1d21; stroke: #1a1d21; stroke-width: 0.8"/>
      </g>
     </g>
     <g id="text_2">
      <text style="font-size: 8.5px; font-family: 'DejaVu Sans'; fill: #1a1d21" transform="translate(129.808305 197.769543)">Kpler 2026</text>
      <text style="font-size: 8.5px; font-family: 'DejaVu Sans'; fill: #1a1d21" transform="translate(122.514906 207.971867)">(all segments)</text>
     </g>
    </g>
   </g>
   <g id="matplotlib.axis_2">
    <g id="ytick_1">
     <g id="line2d_3">
      <path d="M 65.088 183.460041 
L 196.961016 183.460041 
" clip-path="url(#p50c4368f15)" style="fill: none; stroke-dasharray: 2.1,2.1; stroke-dashoffset: 0; stroke: #d8dbe0; stroke-width: 0.7"/>
     </g>
     <g id="line2d_4">
      <defs>
       <path id="m4352b7ae3f" d="M 0 0 
L -3.5 0 
" style="stroke: #1a1d21; stroke-width: 0.8"/>
      </defs>
      <g>
       <use xlink:href="#m4352b7ae3f" x="65.088" y="183.460041" style="fill: #1a1d21; stroke: #1a1d21; stroke-width: 0.8"/>
      </g>
     </g>
     <g id="text_3">
      <text style="font-size: 8.5px; font-family: 'DejaVu Sans'; text-anchor: end; fill: #1a1d21" x="58.088" y="186.689045" transform="rotate(-0 58.088 186.689045)">0.0</text>
     </g>
    </g>
    <g id="ytick_2">
     <g id="line2d_5">
      <path d="M 65.088 162.377224 
L 196.961016 162.377224 
" clip-path="url(#p50c4368f15)" style="fill: none; stroke-dasharray: 2.1,2.1; stroke-dashoffset: 0; stroke: #d8dbe0; stroke-width: 0.7"/>
     </g>
     <g id="line2d_6">
      <g>
       <use xlink:href="#m4352b7ae3f" x="65.088" y="162.377224" style="fill: #1a1d21; stroke: #1a1d21; stroke-width: 0.8"/>
      </g>
     </g>
     <g id="text_4">
      <text style="font-size: 8.5px; font-family: 'DejaVu Sans'; text-anchor: end; fill: #1a1d21" x="58.088" y="165.606228" transform="rotate(-0 58.088 165.606228)">0.2</text>
     </g>
    </g>
    <g id="ytick_3">
     <g id="line2d_7">
      <path d="M 65.088 141.294407 
L 196.961016 141.294407 
" clip-path="url(#p50c4368f15)" style="fill: none; stroke-dasharray: 2.1,2.1; stroke-dashoffset: 0; stroke: #d8dbe0; stroke-width: 0.7"/>
     </g>
     <g id="line2d_8">
      <g>
       <use xlink:href="#m4352b7ae3f" x="65.088" y="141.294407" style="fill: #1a1d21; stroke: #1a1d21; stroke-width: 0.8"/>
      </g>
     </g>
     <g id="text_5">
      <text style="font-size: 8.5px; font-family: 'DejaVu Sans'; text-anchor: end; fill: #1a1d21" x="58.088" y="144.523411" transform="rotate(-0 58.088 144.523411)">0.4</text>
     </g>
    </g>
    <g id="ytick_4">
     <g id="line2d_9">
      <path d="M 65.088 120.21159 
L 196.961016 120.21159 
" clip-path="url(#p50c4368f15)" style="fill: none; stroke-dasharray: 2.1,2.1; stroke-dashoffset: 0; stroke: #d8dbe0; stroke-width: 0.7"/>
     </g>
     <g id="line2d_10">
      <g>
       <use xlink:href="#m4352b7ae3f" x="65.088" y="120.21159" style="fill: #1a1d21; stroke: #1a1d21; stroke-width: 0.8"/>
      </g>
     </g>
     <g id="text_6">
      <text style="font-size: 8.5px; font-family: 'DejaVu Sans'; text-anchor: end; fill: #1a1d21" x="58.088" y="123.440594" transform="rotate(-0 58.088 123.440594)">0.6</text>
     </g>
    </g>
    <g id="ytick_5">
     <g id="line2d_11">
      <path d="M 65.088 99.128773 
L 196.961016 99.128773 
" clip-path="url(#p50c4368f15)" style="fill: none; stroke-dasharray: 2.1,2.1; stroke-dashoffset: 0; stroke: #d8dbe0; stroke-width: 0.7"/>
     </g>
     <g id="line2d_12">
      <g>
       <use xlink:href="#m4352b7ae3f" x="65.088" y="99.128773" style="fill: #1a1d21; stroke: #1a1d21; stroke-width: 0.8"/>
      </g>
     </g>
     <g id="text_7">
      <text style="font-size: 8.5px; font-family: 'DejaVu Sans'; text-anchor: end; fill: #1a1d21" x="58.088" y="102.357777" transform="rotate(-0 58.088 102.357777)">0.8</text>
     </g>
    </g>
    <g id="ytick_6">
     <g id="line2d_13">
      <path d="M 65.088 78.045957 
L 196.961016 78.045957 
" clip-path="url(#p50c4368f15)" style="fill: none; stroke-dasharray: 2.1,2.1; stroke-dashoffset: 0; stroke: #d8dbe0; stroke-width: 0.7"/>
     </g>
     <g id="line2d_14">
      <g>
       <use xlink:href="#m4352b7ae3f" x="65.088" y="78.045957" style="fill: #1a1d21; stroke: #1a1d21; stroke-width: 0.8"/>
      </g>
     </g>
     <g id="text_8">
      <text style="font-size: 8.5px; font-family: 'DejaVu Sans'; text-anchor: end; fill: #1a1d21" x="58.088" y="81.27496" transform="rotate(-0 58.088 81.27496)">1.0</text>
     </g>
    </g>
    <g id="ytick_7">
     <g id="line2d_15">
      <path d="M 65.088 56.96314 
L 196.961016 56.96314 
" clip-path="url(#p50c4368f15)" style="fill: none; stroke-dasharray: 2.1,2.1; stroke-dashoffset: 0; stroke: #d8dbe0; stroke-width: 0.7"/>
     </g>
     <g id="line2d_16">
      <g>
       <use xlink:href="#m4352b7ae3f" x="65.088" y="56.96314" style="fill: #1a1d21; stroke: #1a1d21; stroke-width: 0.8"/>
      </g>
     </g>
     <g id="text_9">
      <text style="font-size: 8.5px; font-family: 'DejaVu Sans'; text-anchor: end; fill: #1a1d21" x="58.088" y="60.192144" transform="rotate(-0 58.088 60.192144)">1.2</text>
     </g>
    </g>
    <g id="ytick_8">
     <g id="line2d_17">
      <path d="M 65.088 35.880323 
L 196.961016 35.880323 
" clip-path="url(#p50c4368f15)" style="fill: none; stroke-dasharray: 2.1,2.1; stroke-dashoffset: 0; stroke: #d8dbe0; stroke-width: 0.7"/>
     </g>
     <g id="line2d_18">
      <g>
       <use xlink:href="#m4352b7ae3f" x="65.088" y="35.880323" style="fill: #1a1d21; stroke: #1a1d21; stroke-width: 0.8"/>
      </g>
     </g>
     <g id="text_10">
      <text style="font-size: 8.5px; font-family: 'DejaVu Sans'; text-anchor: end; fill: #1a1d21" x="58.088" y="39.109327" transform="rotate(-0 58.088 39.109327)">1.4</text>
     </g>
    </g>
    <g id="text_11">
     <text style="font-size: 8.5px; font-family: 'DejaVu Sans'; text-anchor: middle; fill: #1a1d21" x="38.528352" y="108.616041" transform="rotate(-90 38.528352 108.616041)">Structural displacement, mb/d (estimates)</text>
    </g>
   </g>
   <g id="patch_3">
    <path d="M 65.088 183.460041 
L 65.088 33.772041 
" style="fill: none; stroke: #b0b5bc; stroke-width: 0.8; stroke-linejoin: miter; stroke-linecap: square"/>
   </g>
   <g id="patch_4">
    <path d="M 65.088 183.460041 
L 196.961016 183.460041 
" style="fill: none; stroke: #b0b5bc; stroke-width: 0.8; stroke-linejoin: miter; stroke-linecap: square"/>
   </g>
   <g id="patch_5">
    <path d="M 92.927859 183.460041 
L 115.395113 183.460041 
L 115.395113 143.402689 
L 92.927859 143.402689 
z
" clip-path="url(#p50c4368f15)" style="fill: url(#ha425d43d2a); stroke: #e65f00; stroke-width: 1.1; stroke-linejoin: miter"/>
   </g>
   <g id="patch_6">
    <path d="M 92.927859 143.402689 
L 115.395113 143.402689 
L 115.395113 136.023703 
L 92.927859 136.023703 
z
" clip-path="url(#p50c4368f15)" style="fill: url(#ha425d43d2a); stroke: #e65f00; stroke-width: 1.1; stroke-linejoin: miter"/>
   </g>
   <g id="text_12">
    <text style="font-weight: 700; font-size: 9.5px; font-family: 'DejaVu Sans'; text-anchor: middle; fill: #1a1d21" x="104.161486" y="119.157449" transform="rotate(-0 104.161486 119.157449)">≈0.45</text>
   </g>
   <g id="text_13">
    <text style="font-size: 8px; font-family: 'DejaVu Sans'; text-anchor: middle; fill: #e65f00" x="104.161486" y="130.752999" transform="rotate(-0 104.161486 130.752999)">BEV 0.38 + PHEV 0.07</text>
   </g>
   <g id="patch_7">
    <path d="M 141.769717 183.460041 
L 164.236971 183.460041 
L 164.236971 126.536435 
L 141.769717 126.536435 
z
" clip-path="url(#p50c4368f15)" style="fill: url(#h48d0b2313c); stroke: #707b7c; stroke-width: 1.1; stroke-linejoin: miter"/>
   </g>
   <g id="patch_8">
    <path d="M 141.769717 126.536435 
L 164.236971 126.536435 
L 164.236971 73.829393 
L 141.769717 73.829393 
z
" clip-path="url(#p50c4368f15)" style="fill: url(#h48d0b2313c); stroke: #707b7c; stroke-width: 1.1; stroke-linejoin: miter"/>
   </g>
   <g id="text_14">
    <text style="font-weight: 700; font-size: 9.5px; font-family: 'DejaVu Sans'; text-anchor: middle; fill: #1a1d21" x="153.003344" y="56.96314" transform="rotate(-0 153.003344 56.96314)">≈1.04</text>
   </g>
   <g id="text_15">
    <text style="font-size: 8px; font-family: 'DejaVu Sans'; text-anchor: middle; fill: #707b7c" x="153.003344" y="68.558689" transform="rotate(-0 153.003344 68.558689)">gasoline 0.54 + diesel 0.50</text>
   </g>
   <g id="text_16">
    <text style="font-weight: 700; font-size: 9.5px; font-family: 'DejaVu Sans'; fill: #1a1d21" transform="translate(65.088 15.369443)">Two estimates of structural</text>
    <text style="font-weight: 700; font-size: 9.5px; font-family: 'DejaVu Sans'; fill: #1a1d21" transform="translate(65.088 26.772041)">oil-demand displacement</text>
   </g>
  </g>
  <g id="axes_2">
   <g id="patch_9">
    <path d="M 274.10673 183.460041 
L 438.948 183.460041 
L 438.948 33.772041 
L 274.10673 33.772041 
z
" style="fill: #ffffff"/>
   </g>
   <g id="matplotlib.axis_3">
    <g id="xtick_3">
     <g id="line2d_19">
      <path d="M 274.10673 183.460041 
L 274.10673 33.772041 
" clip-path="url(#p0999a7a16d)" style="fill: none; stroke-dasharray: 2.1,2.1; stroke-dashoffset: 0; stroke: #d8dbe0; stroke-width: 0.7"/>
     </g>
     <g id="line2d_20">
      <g>
       <use xlink:href="#m8a1931cfab" x="274.10673" y="183.460041" style="fill: #1a1d21; stroke: #1a1d21; stroke-width: 0.8"/>
      </g>
     </g>
     <g id="text_17">
      <text style="font-size: 8.5px; font-family: 'DejaVu Sans'; text-anchor: middle; fill: #1a1d21" x="274.10673" y="196.918049" transform="rotate(-0 274.10673 196.918049)">0</text>
     </g>
    </g>
    <g id="xtick_4">
     <g id="line2d_21">
      <path d="M 324.05863 183.460041 
L 324.05863 33.772041 
" clip-path="url(#p0999a7a16d)" style="fill: none; stroke-dasharray: 2.1,2.1; stroke-dashoffset: 0; stroke: #d8dbe0; stroke-width: 0.7"/>
     </g>
     <g id="line2d_22">
      <g>
       <use xlink:href="#m8a1931cfab" x="324.05863" y="183.460041" style="fill: #1a1d21; stroke: #1a1d21; stroke-width: 0.8"/>
      </g>
     </g>
     <g id="text_18">
      <text style="font-size: 8.5px; font-family: 'DejaVu Sans'; text-anchor: middle; fill: #1a1d21" x="324.05863" y="196.918049" transform="rotate(-0 324.05863 196.918049)">5</text>
     </g>
    </g>
    <g id="xtick_5">
     <g id="line2d_23">
      <path d="M 374.01053 183.460041 
L 374.01053 33.772041 
" clip-path="url(#p0999a7a16d)" style="fill: none; stroke-dasharray: 2.1,2.1; stroke-dashoffset: 0; stroke: #d8dbe0; stroke-width: 0.7"/>
     </g>
     <g id="line2d_24">
      <g>
       <use xlink:href="#m8a1931cfab" x="374.01053" y="183.460041" style="fill: #1a1d21; stroke: #1a1d21; stroke-width: 0.8"/>
      </g>
     </g>
     <g id="text_19">
      <text style="font-size: 8.5px; font-family: 'DejaVu Sans'; text-anchor: middle; fill: #1a1d21" x="374.01053" y="196.918049" transform="rotate(-0 374.01053 196.918049)">10</text>
     </g>
    </g>
    <g id="xtick_6">
     <g id="line2d_25">
      <path d="M 423.96243 183.460041 
L 423.96243 33.772041 
" clip-path="url(#p0999a7a16d)" style="fill: none; stroke-dasharray: 2.1,2.1; stroke-dashoffset: 0; stroke: #d8dbe0; stroke-width: 0.7"/>
     </g>
     <g id="line2d_26">
      <g>
       <use xlink:href="#m8a1931cfab" x="423.96243" y="183.460041" style="fill: #1a1d21; stroke: #1a1d21; stroke-width: 0.8"/>
      </g>
     </g>
     <g id="text_20">
      <text style="font-size: 8.5px; font-family: 'DejaVu Sans'; text-anchor: middle; fill: #1a1d21" x="423.96243" y="196.918049" transform="rotate(-0 423.96243 196.918049)">15</text>
     </g>
    </g>
    <g id="text_21">
     <text style="font-size: 8.5px; font-family: 'DejaVu Sans'; text-anchor: middle; fill: #1a1d21" x="356.527365" y="209.418713" transform="rotate(-0 356.527365 209.418713)">Million barrels per day</text>
    </g>
   </g>
   <g id="matplotlib.axis_4">
    <g id="ytick_9">
     <g id="line2d_27">
      <g>
       <use xlink:href="#m4352b7ae3f" x="274.10673" y="54.184041" style="fill: #1a1d21; stroke: #1a1d21; stroke-width: 0.8"/>
      </g>
     </g>
     <g id="text_22">
      <text style="font-size: 8px; font-family: 'DejaVu Sans'; fill: #1a1d21" transform="translate(180.02173 52.823025)">World supply shortfall</text>
      <text style="font-size: 8px; font-family: 'DejaVu Sans'; fill: #1a1d21" transform="translate(181.30048 62.424588)">(Mar–May range; IEA)</text>
     </g>
    </g>
    <g id="ytick_10">
     <g id="line2d_28">
      <g>
       <use xlink:href="#m4352b7ae3f" x="274.10673" y="108.616041" style="fill: #1a1d21; stroke: #1a1d21; stroke-width: 0.8"/>
      </g>
     </g>
     <g id="text_23">
      <text style="font-size: 8px; font-family: 'DejaVu Sans'; fill: #1a1d21" transform="translate(189.65423 107.254713)">China crude-import</text>
      <text style="font-size: 8px; font-family: 'DejaVu Sans'; fill: #1a1d21" transform="translate(186.68423 116.8569)">reduction (≈ −40%)</text>
     </g>
    </g>
    <g id="ytick_11">
     <g id="line2d_29">
      <g>
       <use xlink:href="#m4352b7ae3f" x="274.10673" y="163.048041" style="fill: #1a1d21; stroke: #1a1d21; stroke-width: 0.8"/>
      </g>
     </g>
     <g id="text_24">
      <text style="font-size: 8px; font-family: 'DejaVu Sans'; fill: #1a1d21" transform="translate(193.72923 161.686713)">Structural EV/fleet</text>
      <text style="font-size: 8px; font-family: 'DejaVu Sans'; fill: #1a1d21" transform="translate(169.20423 171.2889)">displacement (estimate)</text>
     </g>
    </g>
   </g>
   <g id="patch_10">
    <path d="M 274.10673 183.460041 
L 274.10673 33.772041 
" style="fill: none; stroke: #b0b5bc; stroke-width: 0.8; stroke-linejoin: miter; stroke-linecap: square"/>
   </g>
   <g id="patch_11">
    <path d="M 274.10673 183.460041 
L 438.948 183.460041 
" style="fill: none; stroke: #b0b5bc; stroke-width: 0.8; stroke-linejoin: miter; stroke-linecap: square"/>
   </g>
   <g id="patch_12">
    <path d="M 274.10673 67.792041 
L 374.01053 67.792041 
L 374.01053 40.576041 
L 274.10673 40.576041 
z
" clip-path="url(#p0999a7a16d)" style="fill: #707b7c"/>
   </g>
   <g id="patch_13">
    <path d="M 374.01053 67.792041 
L 409.975898 67.792041 
L 409.975898 40.576041 
L 374.01053 40.576041 
z
" clip-path="url(#p0999a7a16d)" style="fill: url(#h48d0b2313c); stroke: #707b7c; stroke-linejoin: miter"/>
   </g>
   <g id="text_25">
    <text style="font-size: 8.5px; font-family: 'DejaVu Sans'; text-anchor: start; fill: #1a1d21" x="412.473493" y="56.392049" transform="rotate(-0 412.473493 56.392049)">10–13.6</text>
   </g>
   <g id="patch_14">
    <path d="M 274.10673 122.224041 
L 314.06825 122.224041 
L 314.06825 95.008041 
L 274.10673 95.008041 
z
" clip-path="url(#p0999a7a16d)" style="fill: #00204e"/>
   </g>
   <g id="text_26">
    <text style="font-size: 8.5px; font-family: 'DejaVu Sans'; text-anchor: start; fill: #1a1d21" x="316.565845" y="110.824049" transform="rotate(-0 316.565845 110.824049)">≈4</text>
   </g>
   <g id="patch_15">
    <path d="M 274.10673 176.656041 
L 284.09711 176.656041 
L 284.09711 149.440041 
L 274.10673 149.440041 
z
" clip-path="url(#p0999a7a16d)" style="fill: url(#ha425d43d2a); stroke: #e65f00; stroke-width: 1.1; stroke-linejoin: miter"/>
   </g>
   <g id="text_27">
    <text style="font-size: 8.5px; font-family: 'DejaVu Sans'; text-anchor: start; fill: #1a1d21" x="286.594705" y="165.256049" transform="rotate(-0 286.594705 165.256049)">≈1</text>
   </g>
   <g id="text_28">
    <text style="font-weight: 700; font-size: 9.5px; font-family: 'DejaVu Sans'; fill: #1a1d21" transform="translate(274.10673 15.369443)">March–May 2026: a scale comparison,</text>
    <text style="font-weight: 700; font-size: 9.5px; font-family: 'DejaVu Sans'; fill: #1a1d21" transform="translate(274.10673 26.772041)">not a decomposition</text>
   </g>
  </g>
  <g id="text_29">
   <text style="font-size: 8px; font-family: 'DejaVu Sans'; fill: #707b7c" transform="translate(7.2 221.443572)">Sources: derivation — MPS fleet registrations and stated assumptions (Thread 1); Kpler displacement estimates, 2026; IEA Oil Market</text>
   <text style="font-size: 8px; font-family: 'DejaVu Sans'; fill: #707b7c" transform="translate(7.2 231.04576)">Report monthly accounting, Mar–May 2026. Hatched bars are estimates. The three right-hand quantities are different kinds of measure,</text>
   <text style="font-size: 8px; font-family: 'DejaVu Sans'; fill: #707b7c" transform="translate(7.2 240.647947)">shown together only for scale; refinery-run cuts and halted product exports, not the fleet, supplied most of the import swing.</text>
  </g>
 </g>
 <defs>
  <clipPath id="p50c4368f15">
   <rect x="65.088" y="33.772041" width="131.873016" height="149.688"/>
  </clipPath>
  <clipPath id="p0999a7a16d">
   <rect x="274.10673" y="33.772041" width="164.84127" height="149.688"/>
  </clipPath>
 </defs>
 <defs>
  <pattern id="ha425d43d2a" patternUnits="userSpaceOnUse" x="0" y="0" width="72" height="72">
   <rect x="0" y="0" width="73" height="73" fill="#ffffff"/>
   <path d="M -36 36 
L 36 -36 
M -32 40 
L 40 -32 
M -28 44 
L 44 -28 
M -24 48 
L 48 -24 
M -20 52 
L 52 -20 
M -16 56 
L 56 -16 
M -12 60 
L 60 -12 
M -8 64 
L 64 -8 
M -4 68 
L 68 -4 
M 0 72 
L 72 0 
M 4 76 
L 76 4 
M 8 80 
L 80 8 
M 12 84 
L 84 12 
M 16 88 
L 88 16 
M 20 92 
L 92 20 
M 24 96 
L 96 24 
M 28 100 
L 100 28 
M 32 104 
L 104 32 
M 36 108 
L 108 36 
" style="fill: #e65f00; stroke: #e65f00; stroke-width: 0.7; stroke-linecap: butt; stroke-linejoin: miter"/>
  </pattern>
  <pattern id="h48d0b2313c" patternUnits="userSpaceOnUse" x="0" y="0" width="72" height="72">
   <rect x="0" y="0" width="73" height="73" fill="#ffffff"/>
   <path d="M -36 36 
L 36 -36 
M -32 40 
L 40 -32 
M -28 44 
L 44 -28 
M -24 48 
L 48 -24 
M -20 52 
L 52 -20 
M -16 56 
L 56 -16 
M -12 60 
L 60 -12 
M -8 64 
L 64 -8 
M -4 68 
L 68 -4 
M 0 72 
L 72 0 
M 4 76 
L 76 4 
M 8 80 
L 80 8 
M 12 84 
L 84 12 
M 16 88 
L 88 16 
M 20 92 
L 92 20 
M 24 96 
L 96 24 
M 28 100 
L 100 28 
M 32 104 
L 104 32 
M 36 108 
L 108 36 
" style="fill: #707b7c; stroke: #707b7c; stroke-width: 0.7; stroke-linecap: butt; stroke-linejoin: miter"/>
  </pattern>
 </defs>
</svg>
